<?xml version="1.0" encoding="utf-8"?>
<!-- Generator: Adobe Illustrator 18.0.0, SVG Export Plug-In . SVG Version: 6.00 Build 0)  -->
<!DOCTYPE svg PUBLIC "-//W3C//DTD SVG 1.1//EN" "http://www.w3.org/Graphics/SVG/1.1/DTD/svg11.dtd">
<svg version="1.1" id="Calque_1" xmlns="http://www.w3.org/2000/svg" xmlns:xlink="http://www.w3.org/1999/xlink" x="0px" y="0px"
	 viewBox="0 0 757.9 159.3" enable-background="new 0 0 757.9 159.3" xml:space="preserve">
<path fill="#FFFFFF" d="M0,79.5C0,33,33.6,0,80.5,0c31.1,0,50,13.5,60,27.3l-26.1,24.5c-7.2-10.7-18.2-16.3-32.1-16.3
	c-24.2,0-41.2,17.6-41.2,44c0,26.4,17,44.3,41.2,44.3c13.8,0,24.8-6.3,32.1-16.3l26.1,24.2c-10.1,14.1-28.9,27.7-60,27.7
	C33.6,159.3,0,126.3,0,79.5z"/>
<path fill="#FFFFFF" d="M155.6,155.6V3.8h39.9v20.7C206.2,11,225,0,243.9,0v39c-2.8-0.6-6.6-0.9-11-0.9c-13.2,0-30.8,7.5-37.4,17.3
	v100.3H155.6z"/>
<path fill="#FFFFFF" d="M448,155.6V59.7c0-14.1-6.3-24.2-22.6-24.2c-14.1,0-25.8,9.4-31.4,17.6v102.5h-40.2V59.7
	c0-14.1-6.3-24.2-22.6-24.2c-13.8,0-25.5,9.4-31.4,17.9v102.1h-39.9V3.8h39.9v19.8C305.9,14.5,326,0,349.3,0
	c22.3,0,36.5,10.4,42.1,27.7C400.2,13.8,420.3,0,443.6,0c28,0,44.6,14.8,44.6,45.9v109.7H448z"/>
<path fill="#FFFFFF" d="M604.6,155.6v-15.7c-10.4,12.3-28.3,19.5-48.1,19.5c-24.2,0-52.8-16.3-52.8-50.3c0-35.5,28.6-49,52.8-49
	c20.1,0,38,6.6,48.1,18.5V58.1c0-15.4-13.2-25.5-33.3-25.5c-16.3,0-31.4,6-44.3,17.9l-15.1-26.7C530.4,7.5,554.3,0,578.2,0
	c34.6,0,66.3,13.8,66.3,57.5v98.1H604.6z M604.6,119.1v-18.9c-6.6-8.8-19.2-13.2-32.1-13.2c-15.7,0-28.6,8.2-28.6,22.9
	c0,14.1,12.9,22.3,28.6,22.3C585.4,132.3,598,127.9,604.6,119.1z"/>
<path fill="#FFFFFF" d="M665.8,85.8l3,2.5c-3.3,2.3-5.8,6.3-6,9.6c0-0.1,0.7-0.2,1-0.2c2.5,0,4.2,2,4.2,4.3c0,2.4-2,4.5-4.5,4.5
	c-2.8,0-5.3-2.4-5.3-6.6C658.3,94.1,661.8,88.7,665.8,85.8z"/>
<path fill="#FFFFFF" d="M693.1,155.9v-61L682,106.7l-3.6-3.8l15.2-16h5.4v69H693.1z"/>
<path fill="#FFFFFF" d="M711.3,145.8l3.9-3.9c4.5,6.3,10.5,9.8,19.4,9.8c9.9,0,17.3-7.2,17.3-16.7c0-10.5-7.2-16.9-17.2-16.9
	c-6.3,0-11.7,2.1-16.8,6.7l-4.5-1.9V86.8h39.9v5.4h-33.9v27c3.4-3.3,9.3-6.4,16.5-6.4c11.6,0,22,7.7,22,22
	c0,13.8-10.6,22.3-23.3,22.3C723.1,157.1,716,152.7,711.3,145.8z"/>
</svg>
